<svg width="11" height="11" viewBox="0 0 11 11" fill="none" xmlns="http://www.w3.org/2000/svg">
<path fill-rule="evenodd" clip-rule="evenodd" d="M0.250048 5.50001C0.250048 5.67405 0.319188 5.84097 0.442259 5.96404C0.56533 6.08712 0.732249 6.15626 0.906298 6.15626H8.50961L5.69167 8.97288C5.63066 9.0339 5.58226 9.10633 5.54924 9.18605C5.51621 9.26577 5.49922 9.35122 5.49922 9.43751C5.49922 9.52379 5.51621 9.60924 5.54924 9.68896C5.58226 9.76868 5.63066 9.84111 5.69167 9.90213C5.75269 9.96315 5.82512 10.0115 5.90484 10.0446C5.98456 10.0776 6.07001 10.0946 6.1563 10.0946C6.24259 10.0946 6.32803 10.0776 6.40775 10.0446C6.48747 10.0115 6.55991 9.96315 6.62092 9.90213L10.5584 5.96463C10.6195 5.90367 10.668 5.83125 10.7011 5.75152C10.7342 5.6718 10.7512 5.58632 10.7512 5.50001C10.7512 5.41369 10.7342 5.32821 10.7011 5.24849C10.668 5.16876 10.6195 5.09634 10.5584 5.03538L6.62092 1.09788C6.4977 0.974654 6.33057 0.905426 6.1563 0.905426C5.98203 0.905426 5.8149 0.974654 5.69167 1.09788C5.56845 1.22111 5.49922 1.38824 5.49922 1.56251C5.49922 1.73677 5.56845 1.9039 5.69167 2.02713L8.50961 4.84376H0.906298C0.732249 4.84376 0.56533 4.9129 0.442259 5.03597C0.319188 5.15904 0.250048 5.32596 0.250048 5.50001Z" fill="currentColor"/>
</svg>
