<svg width="11" height="11" viewBox="0 0 11 11" fill="none" xmlns="http://www.w3.org/2000/svg">
<path fill-rule="evenodd" clip-rule="evenodd" d="M10.75 5.50001C10.75 5.67405 10.6808 5.84097 10.5577 5.96404C10.4347 6.08712 10.2678 6.15626 10.0937 6.15626H2.49039L5.30833 8.97288C5.36934 9.0339 5.41774 9.10633 5.45076 9.18605C5.48379 9.26577 5.50078 9.35122 5.50078 9.43751C5.50078 9.52379 5.48379 9.60924 5.45076 9.68896C5.41774 9.76868 5.36934 9.84111 5.30833 9.90213C5.24731 9.96315 5.17488 10.0115 5.09516 10.0446C5.01544 10.0776 4.92999 10.0946 4.8437 10.0946C4.75741 10.0946 4.67197 10.0776 4.59225 10.0446C4.51253 10.0115 4.44009 9.96315 4.37908 9.90213L0.441577 5.96463C0.380463 5.90367 0.331975 5.83125 0.298892 5.75152C0.265808 5.6718 0.248779 5.58632 0.248779 5.50001C0.248779 5.41369 0.265808 5.32821 0.298892 5.24849C0.331975 5.16876 0.380463 5.09634 0.441577 5.03538L4.37908 1.09788C4.5023 0.974654 4.66943 0.905426 4.8437 0.905426C5.01797 0.905426 5.1851 0.974654 5.30833 1.09788C5.43155 1.22111 5.50078 1.38824 5.50078 1.56251C5.50078 1.73677 5.43155 1.9039 5.30833 2.02713L2.49039 4.84376H10.0937C10.2678 4.84376 10.4347 4.9129 10.5577 5.03597C10.6808 5.15904 10.75 5.32596 10.75 5.50001Z" fill="#818181"/>
</svg>
