<svg width="1904" height="1080" viewBox="0 0 1904 1080" fill="none" xmlns="http://www.w3.org/2000/svg">
<path d="M1538.17 866.717C1535.77 866.717 1533.81 864.757 1533.81 862.359C1533.81 859.96 1535.77 858 1538.17 858C1540.57 858 1542.53 859.96 1542.53 862.359C1542.53 864.757 1540.57 866.717 1538.17 866.717Z" fill="#060000"/>
<path d="M1538.17 904.153C1535.77 904.153 1533.81 902.192 1533.81 899.794C1533.81 897.395 1535.77 895.435 1538.17 895.435C1540.57 895.435 1542.53 897.395 1542.53 899.794C1542.53 902.192 1540.57 904.153 1538.17 904.153Z" fill="#060000"/>
<path d="M1538.17 941.608C1535.77 941.608 1533.81 939.648 1533.81 937.25C1533.81 934.851 1535.77 932.891 1538.17 932.891C1540.57 932.891 1542.53 934.851 1542.53 937.25C1542.53 939.648 1540.57 941.608 1538.17 941.608Z" fill="#060000"/>
<path d="M1538.17 979.064C1535.77 979.064 1533.81 977.104 1533.81 974.706C1533.81 972.307 1535.77 970.347 1538.17 970.347C1540.57 970.347 1542.53 972.307 1542.53 974.706C1542.53 977.104 1540.57 979.064 1538.17 979.064Z" fill="#060000"/>
<path d="M1538.17 1015.48C1535.77 1015.48 1533.81 1013.52 1533.81 1011.12C1533.81 1008.72 1535.77 1006.76 1538.17 1006.76C1540.57 1006.76 1542.53 1008.72 1542.53 1011.12C1542.53 1013.52 1540.57 1015.48 1538.17 1015.48Z" fill="#060000"/>
<path d="M1538.17 1052.93C1535.77 1052.93 1533.81 1050.97 1533.81 1048.57C1533.81 1046.18 1535.77 1044.22 1538.17 1044.22C1540.57 1044.22 1542.53 1046.18 1542.53 1048.57C1542.53 1050.97 1540.57 1052.93 1538.17 1052.93Z" fill="#060000"/>
<path d="M1494.36 866.717C1491.96 866.717 1490 864.757 1490 862.359C1490 859.96 1491.96 858 1494.36 858C1496.76 858 1498.72 859.96 1498.72 862.359C1498.72 864.757 1496.76 866.717 1494.36 866.717Z" fill="#060000"/>
<path d="M1494.36 904.153C1491.96 904.153 1490 902.192 1490 899.794C1490 897.395 1491.96 895.435 1494.36 895.435C1496.76 895.435 1498.72 897.395 1498.72 899.794C1498.72 902.192 1496.76 904.153 1494.36 904.153Z" fill="#060000"/>
<path d="M1494.36 941.608C1491.96 941.608 1490 939.648 1490 937.25C1490 934.851 1491.96 932.891 1494.36 932.891C1496.76 932.891 1498.72 934.851 1498.72 937.25C1498.72 939.648 1496.76 941.608 1494.36 941.608Z" fill="#060000"/>
<path d="M1494.36 979.064C1491.96 979.064 1490 977.104 1490 974.706C1490 972.307 1491.96 970.347 1494.36 970.347C1496.76 970.347 1498.72 972.307 1498.72 974.706C1498.72 977.104 1496.76 979.064 1494.36 979.064Z" fill="#060000"/>
<path d="M1494.36 1015.48C1491.96 1015.48 1490 1013.52 1490 1011.12C1490 1008.72 1491.96 1006.76 1494.36 1006.76C1496.76 1006.76 1498.72 1008.72 1498.72 1011.12C1498.72 1013.52 1496.76 1015.48 1494.36 1015.48Z" fill="#060000"/>
<path d="M1494.36 1052.93C1491.96 1052.93 1490 1050.97 1490 1048.57C1490 1046.18 1491.96 1044.22 1494.36 1044.22C1496.76 1044.22 1498.72 1046.18 1498.72 1048.57C1498.72 1050.97 1496.76 1052.93 1494.36 1052.93Z" fill="#060000"/>
<path d="M196.747 257H79.0002V374.712H196.747V257Z" stroke="#060000" stroke-width="1.3" stroke-miterlimit="10"/>
<path d="M79.0002 374.712L123.443 419.142H242.26V300.948L196.747 257" stroke="#060000" stroke-width="1.3" stroke-miterlimit="10"/>
<path d="M196.747 374.712L241.717 419.684" stroke="#060000" stroke-width="1.3" stroke-miterlimit="10"/>
<g style="mix-blend-mode:multiply">
<g style="mix-blend-mode:multiply">
<g style="mix-blend-mode:multiply">
<g style="mix-blend-mode:multiply">
<path d="M1243.11 38.7899C1247.04 38.7899 1250.23 35.6059 1250.23 31.6783C1250.23 27.7506 1247.04 24.5667 1243.11 24.5667C1239.19 24.5667 1236 27.7506 1236 31.6783C1236 35.6059 1239.19 38.7899 1243.11 38.7899Z" fill="#1A6F6F"/>
</g>
<g style="mix-blend-mode:multiply">
<path d="M1304.26 38.7899C1308.19 38.7899 1311.37 35.6059 1311.37 31.6783C1311.37 27.7506 1308.19 24.5667 1304.26 24.5667C1300.33 24.5667 1297.15 27.7506 1297.15 31.6783C1297.15 35.6059 1300.33 38.7899 1304.26 38.7899Z" fill="#1A6F6F"/>
</g>
<g style="mix-blend-mode:multiply">
<path d="M1372.54 31.6783C1372.54 35.599 1369.35 38.7899 1365.42 38.7899C1361.5 38.7899 1358.31 35.599 1358.31 31.6783C1358.31 27.7575 1361.5 24.5667 1365.42 24.5667C1369.35 24.5667 1372.54 27.7575 1372.54 31.6783Z" fill="#1A6F6F"/>
</g>
<g style="mix-blend-mode:multiply">
<path d="M1426.57 38.7899C1430.5 38.7899 1433.68 35.6059 1433.68 31.6783C1433.68 27.7506 1430.5 24.5667 1426.57 24.5667C1422.64 24.5667 1419.46 27.7506 1419.46 31.6783C1419.46 35.6059 1422.64 38.7899 1426.57 38.7899Z" fill="#1A6F6F"/>
</g>
</g>
</g>
</g>
<path d="M15.6449 27.7096C15.6449 31.7555 12.3697 35.0297 8.32259 35.0297C4.27549 35.0297 1.00024 31.7555 1.00024 27.7096C1.00024 23.6637 4.27549 20.3894 8.32259 20.3894C12.3697 20.3894 15.6449 23.6637 15.6449 27.7096Z" fill="#060000"/>
<path d="M78.6255 27.7096C78.6255 31.7555 75.3503 35.0297 71.3032 35.0297C67.2561 35.0297 63.9808 31.7555 63.9808 27.7096C63.9808 23.6637 67.2561 20.3894 71.3032 20.3894C75.3503 20.3894 78.6255 23.6637 78.6255 27.7096Z" fill="#060000"/>
<path d="M141.585 27.7096C141.585 31.7555 138.31 35.0297 134.263 35.0297C130.216 35.0297 126.941 31.7555 126.941 27.7096C126.941 23.6637 130.216 20.3894 134.263 20.3894C138.31 20.3894 141.585 23.6637 141.585 27.7096Z" fill="#060000"/>
<path d="M204.566 27.7096C204.566 31.7555 201.291 35.0297 197.243 35.0297C193.196 35.0297 189.921 31.7555 189.921 27.7096C189.921 23.6637 193.196 20.3894 197.243 20.3894C201.291 20.3894 204.566 23.6637 204.566 27.7096Z" fill="#060000"/>
<path d="M15.6449 87.418C15.6449 91.4639 12.3697 94.7382 8.32259 94.7382C4.27549 94.7382 1.00024 91.4639 1.00024 87.418C1.00024 83.3721 4.27549 80.0978 8.32259 80.0978C12.3697 80.0978 15.6449 83.3721 15.6449 87.418Z" fill="#060000"/>
<path d="M78.6255 87.418C78.6255 91.4639 75.3503 94.7382 71.3032 94.7382C67.2561 94.7382 63.9808 91.4639 63.9808 87.418C63.9808 83.3721 67.2561 80.0978 71.3032 80.0978C75.3503 80.0978 78.6255 83.3721 78.6255 87.418Z" fill="#060000"/>
<path d="M141.585 87.418C141.585 91.4639 138.31 94.7382 134.263 94.7382C130.216 94.7382 126.941 91.4639 126.941 87.418C126.941 83.3721 130.216 80.0978 134.263 80.0978C138.31 80.0978 141.585 83.3721 141.585 87.418Z" fill="#060000"/>
<path d="M204.566 87.418C204.566 91.4639 201.291 94.7382 197.243 94.7382C193.196 94.7382 189.921 91.4639 189.921 87.418C189.921 83.3721 193.196 80.0978 197.243 80.0978C201.291 80.0978 204.566 83.3721 204.566 87.418Z" fill="#060000"/>
<path d="M15.6449 147.106C15.6449 151.151 12.3697 154.426 8.32259 154.426C4.27549 154.426 1.00024 151.151 1.00024 147.106C1.00024 143.06 4.27549 139.785 8.32259 139.785C12.3697 139.785 15.6449 143.06 15.6449 147.106Z" fill="#060000"/>
<path d="M78.6255 147.106C78.6255 151.151 75.3503 154.426 71.3032 154.426C67.2561 154.426 63.9808 151.151 63.9808 147.106C63.9808 143.06 67.2561 139.785 71.3032 139.785C75.3503 139.785 78.6255 143.06 78.6255 147.106Z" fill="#060000"/>
<path d="M141.585 147.106C141.585 151.151 138.31 154.426 134.263 154.426C130.216 154.426 126.941 151.151 126.941 147.106C126.941 143.06 130.216 139.785 134.263 139.785C138.31 139.785 141.585 143.06 141.585 147.106Z" fill="#060000"/>
<path d="M204.566 147.106C204.566 151.151 201.291 154.426 197.243 154.426C193.196 154.426 189.921 151.151 189.921 147.106C189.921 143.06 193.196 139.785 197.243 139.785C201.291 139.785 204.566 143.06 204.566 147.106Z" fill="#060000"/>
<path d="M15.6449 206.814C15.6449 210.86 12.3697 214.134 8.32259 214.134C4.27549 214.134 1.00024 210.86 1.00024 206.814C1.00024 202.768 4.27549 199.494 8.32259 199.494C12.3697 199.494 15.6449 202.768 15.6449 206.814Z" fill="#060000"/>
<path d="M78.6255 206.814C78.6255 210.86 75.3503 214.134 71.3032 214.134C67.2561 214.134 63.9808 210.86 63.9808 206.814C63.9808 202.768 67.2561 199.494 71.3032 199.494C75.3503 199.494 78.6255 202.768 78.6255 206.814Z" fill="#060000"/>
<path d="M141.585 206.814C141.585 210.86 138.31 214.134 134.263 214.134C130.216 214.134 126.941 210.86 126.941 206.814C126.941 202.768 130.216 199.494 134.263 199.494C138.31 199.494 141.585 202.768 141.585 206.814Z" fill="#060000"/>
<path d="M204.566 206.814C204.566 210.86 201.291 214.134 197.243 214.134C193.196 214.134 189.921 210.86 189.921 206.814C189.921 202.768 193.196 199.494 197.243 199.494C201.291 199.494 204.566 202.768 204.566 206.814Z" fill="#060000"/>
<path d="M327.809 173.022L317.051 183.779L328 194.728L317.728 205L306.779 194.051L296.022 204.809L286.25 195.037L297.008 184.28L286 173.272L296.272 163L307.28 174.008L318.037 163.25L327.809 173.022Z" fill="#FF6247"/>
<path d="M1846.27 578.202L1831.02 593.448L1846.54 608.964L1831.98 623.521L1816.46 608.004L1801.21 623.25L1787.35 609.402L1802.6 594.157L1787 578.557L1801.56 564L1817.17 579.6L1832.42 564.355L1846.27 578.202Z" fill="#FF6247"/>
<path d="M230 1003.72L261.73 972" stroke="#3F3F3F" stroke-width="1.5" stroke-miterlimit="10"/>
<path d="M257.662 1003.72L289.393 972" stroke="#3F3F3F" stroke-width="1.5" stroke-miterlimit="10"/>
<path d="M285.325 1003.72L317.055 972" stroke="#3F3F3F" stroke-width="1.5" stroke-miterlimit="10"/>
<path d="M312.987 1003.72L344.717 972" stroke="#3F3F3F" stroke-width="1.5" stroke-miterlimit="10"/>
<path d="M340.649 1003.72L372.379 972" stroke="#3F3F3F" stroke-width="1.5" stroke-miterlimit="10"/>
<path d="M368.311 1003.72L400.041 972" stroke="#3F3F3F" stroke-width="1.5" stroke-miterlimit="10"/>
<path d="M395.974 1003.72L427.725 972" stroke="#3F3F3F" stroke-width="1.5" stroke-miterlimit="10"/>
<path d="M1742.74 1207.84C1836.66 1207.84 1912.8 1131.72 1912.8 1037.83C1912.8 943.933 1836.66 867.816 1742.74 867.816C1648.81 867.816 1572.67 943.933 1572.67 1037.83C1572.67 1131.72 1648.81 1207.84 1742.74 1207.84Z" stroke="#1A6F6F" stroke-miterlimit="10"/>
<path d="M1829.94 1249.21C1946.8 1201.08 2002.51 1067.36 1954.37 950.534C1906.22 833.707 1772.46 778.016 1655.6 826.145C1538.74 874.274 1483.03 1008 1531.17 1124.82C1579.31 1241.65 1713.08 1297.34 1829.94 1249.21Z" stroke="#1A6F6F" stroke-miterlimit="10"/>
<path d="M1742.74 1237.2C1632.75 1237.2 1543.28 1147.76 1543.28 1037.81C1543.28 927.858 1632.75 838.41 1742.74 838.41C1852.72 838.41 1942.19 927.858 1942.19 1037.81C1942.19 1147.76 1852.72 1237.2 1742.74 1237.2Z" stroke="#1A6F6F" stroke-miterlimit="10"/>
<path d="M1742.74 1207.84C1836.66 1207.84 1912.8 1131.72 1912.8 1037.83C1912.8 943.933 1836.66 867.816 1742.74 867.816C1648.81 867.816 1572.67 943.933 1572.67 1037.83C1572.67 1131.72 1648.81 1207.84 1742.74 1207.84Z" stroke="#1A6F6F" stroke-miterlimit="10"/>
<path d="M1742.74 1176.31C1819.24 1176.31 1881.26 1114.31 1881.26 1037.83C1881.26 961.348 1819.24 899.349 1742.74 899.349C1666.23 899.349 1604.22 961.348 1604.22 1037.83C1604.22 1114.31 1666.23 1176.31 1742.74 1176.31Z" stroke="#1A6F6F" stroke-miterlimit="10"/>
<path d="M1742.74 1147.42C1803.28 1147.42 1852.36 1098.35 1852.36 1037.83C1852.36 977.3 1803.28 928.233 1742.74 928.233C1682.19 928.233 1633.11 977.3 1633.11 1037.83C1633.11 1098.35 1682.19 1147.42 1742.74 1147.42Z" stroke="#1A6F6F" stroke-miterlimit="10"/>
<g style="mix-blend-mode:multiply">
<path d="M1926.44 686H1767.6V707.293H1926.44V686Z" fill="#1A6F6F"/>
</g>
<g style="mix-blend-mode:multiply">
<path d="M1735.79 686H1691V707.293H1735.79V686Z" fill="#1A6F6F"/>
</g>
<g style="mix-blend-mode:multiply">
<path d="M269.087 403.563H224.298V448.339H269.087V403.563Z" fill="#FF6247"/>
</g>
</svg>
